<?xml version="1.0" encoding="UTF-8"?>
<svg width="1044px" height="725px" viewBox="0 0 1044 725" version="1.1" xmlns="http://www.w3.org/2000/svg" xmlns:xlink="http://www.w3.org/1999/xlink">
    <title>SF50</title>
    <defs>
        <linearGradient x1="49.9999809%" y1="100%" x2="49.9999942%" y2="37.9516857%" id="linearGradient-1">
            <stop stop-color="#6A69A9" offset="0%"></stop>
            <stop stop-color="#1F1E52" offset="100%"></stop>
        </linearGradient>
    </defs>
    <g id="App-Icon" stroke="none" stroke-width="1" fill="none" fill-rule="evenodd">
        <g id="Icon" transform="translate(-144, -468.5)" fill="url(#linearGradient-1)" stroke="#FFFFFF" stroke-width="10">
            <path d="M388.621283,474.162911 C390.91806,473.725331 393.33509,474.095779 395.60648,475.718288 C398.592268,477.851108 464.924444,528.424884 594.588993,627.424794 C602.511906,620.029678 611.646204,613.903623 621.664016,609.373089 L622.038,609.206 L622.064698,608.824179 C622.656052,601.18323 627.277695,594.122068 634.959806,588.926767 L635.38186,588.645245 C642.961803,583.65844 653.417267,580.5 665,580.5 C676.582733,580.5 687.038197,583.65844 694.61814,588.645245 C703.119682,594.238365 708,602.079841 708,610.5 C708,610.705737 707.997094,610.911027 707.991629,611.116668 C717.330503,615.805231 725.831502,621.907052 733.226598,629.134083 C862.935758,530.298527 929.275825,479.825432 932.248441,477.706529 C934.508507,476.095536 936.913451,475.727206 939.198927,476.161708 C941.375908,476.575584 943.492235,477.815062 945.124173,479.591674 C946.790195,481.405391 947.895474,483.727188 948.189727,485.918979 C948.557807,488.660681 947.787414,491.21298 945.862584,493.133827 C943.731913,495.260089 878.930711,548.735723 751.45032,653.531022 C758.822624,667.40424 763,683.216766 763,700 C763,715.533725 759.421032,730.235788 753.041504,743.336839 C753.229544,747.578357 754.083593,750.883568 756.070115,753.018729 C758.015879,755.110083 760.995977,755.726018 764.700656,755.508522 C801.137038,752.834826 938.787541,743.16934 1177.65217,726.512113 C1194.37246,725.346123 1210.59687,724.21504 1226.32538,723.118863 L1183,1188.5 L149,1188.5 L149,726.135096 C152.48402,726.380721 154.351532,726.512373 154.351608,726.512378 C154.352163,726.512417 253.798456,733.522993 355.179357,740.664034 L367.109567,741.504344 C460.54066,748.084983 552.367143,754.547282 566.269215,755.506362 C568.862542,755.591213 570.99578,755.137752 572.429563,753.641727 C573.865501,752.143453 574.564952,749.884237 574.857524,747.035125 C567.292641,733.028244 563,717.012879 563,700 C563,682.365386 567.61175,665.802426 575.684826,651.419125 C448.633101,546.771834 384.054874,493.364414 381.918314,491.227739 C379.989818,489.299139 379.217645,486.736516 379.586416,483.983824 C379.881869,481.778421 380.992449,479.442811 382.665097,477.618007 C384.30553,475.828347 386.433035,474.579814 388.621283,474.162911 Z" id="SF50"></path>
        </g>
    </g>
</svg>