<?xml version="1.0" encoding="UTF-8"?>
<svg width="1018px" height="841px" viewBox="0 0 1018 841" version="1.1" xmlns="http://www.w3.org/2000/svg" xmlns:xlink="http://www.w3.org/1999/xlink">
    <title>Loading Image (dark)</title>
    <defs>
        <radialGradient cx="49.934375%" cy="0%" fx="49.934375%" fy="0%" r="985.224394%" gradientTransform="translate(0.499344,0.000000),scale(1.000000,0.077620),rotate(90.000000),translate(-0.499344,-0.000000)" id="radialGradient-1">
            <stop stop-color="#FFFFFF" offset="0%"></stop>
            <stop stop-color="#000000" offset="0%"></stop>
            <stop stop-color="#FFFFFF" offset="100%"></stop>
        </radialGradient>
    </defs>
    <g id="Loading-Images" stroke="none" stroke-width="1" fill="none" fill-rule="evenodd">
        <g id="Dark" transform="translate(-3.000000, -1.500000)">
            <g id="Runway" transform="translate(272.500000, 0.000000)">
                <polygon fill="#000000" points="473.5 773.5 239 1.5 0.5 773.5"></polygon>
                <path d="M240.7003,0.5 L238.5,52.5 L243.5,52.5 L241.2997,0.5 L240.7003,0.5 Z M237.405614,90.5 L235.5,142.5 L246.5,142.5 L244.594386,90.5 L237.405614,90.5 Z M233.441241,180.5 L231.5,232.5 L249.5,232.5 L247.558759,180.5 L233.441241,180.5 Z M230.457343,270.5 L228.5,322.5 L253.5,322.5 L251.542657,270.5 L230.457343,270.5 Z M226.466518,360.5 L224.5,412.5 L256.5,412.5 L254.533482,360.5 L226.466518,360.5 Z M223.472445,451.5 L221.5,503.5 L260.5,503.5 L258.527555,451.5 L223.472445,451.5 Z M219.476589,541.5 L217.5,593.5 L263.5,593.5 L261.523411,541.5 L219.476589,541.5 Z M216.479649,631.5 L214.5,683.5 L267.5,683.5 L265.520351,631.5 L216.479649,631.5 Z M212.482002,721.5 L210.5,773.5 L270.5,773.5 L268.517998,721.5 L212.482002,721.5 Z" id="Centerline" fill="url(#radialGradient-1)" fill-rule="nonzero"></path>
            </g>
            <path d="M276.178598,509.047707 C278.225665,508.657723 280.380959,508.984739 282.406191,510.431333 C284.71114,512.077725 336.744736,551.748913 438.498657,629.433747 C446.931337,621.094014 456.850422,614.240178 467.825917,609.300045 L468.038,609.205 L468.064698,608.824179 C468.656052,601.18323 473.277695,594.122068 480.959806,588.926767 L481.38186,588.645245 C488.961803,583.65844 499.417267,580.5 511,580.5 C522.582733,580.5 533.038197,583.65844 540.61814,588.645245 C549.119682,594.238365 554,602.079841 554,610.5 C554,610.705737 553.997094,610.911027 553.991894,611.116803 C564.268063,616.276126 573.527747,623.147734 581.393814,631.354705 C683.073098,553.716976 735.065732,514.077062 737.369753,512.431333 C739.394985,510.984739 741.550279,510.657723 743.597346,511.047707 C745.498053,511.409809 747.353946,512.482826 748.780868,514.039468 C750.222033,515.611648 751.169417,517.627055 751.423735,519.525312 C751.755807,522.003927 751.044128,524.302884 749.311478,526.035534 C747.657461,527.689551 696.730733,569.805657 596.499464,652.351974 L596.731,652.16 L597.005192,652.65707 C604.483947,666.393894 608.84784,682.250792 608.996096,699.111665 L609,700 C609,716.892512 604.767863,732.801567 597.303213,746.737063 C597.780295,749.695164 598.711983,752.024973 600.400394,753.545677 C602.259383,755.220016 604.924159,755.705505 608.181602,755.508791 C643.346305,752.861233 775.180704,743.361836 1003.68482,727.010651 L1003.68482,727.010651 L1016,726.129443 L1016,757.272967 L513.46419,836.561492 L8,757.27686 L8,726.125258 C11.4887828,726.377627 13.3607209,726.513029 13.3607209,726.513029 C13.3607209,726.513029 385.945706,753.463095 414.813758,755.506635 C417.051689,755.581367 418.922762,755.230774 420.270808,754.071588 C421.37764,753.119823 422.072576,751.724572 422.521956,749.989471 C413.924175,735.299855 409,718.222063 409,700 C409,681.701735 413.965232,664.557248 422.623194,649.813407 C322.929326,567.709251 272.116562,525.68763 270.464466,524.035534 C268.731816,522.302884 268.020138,520.003927 268.352209,517.525312 C268.606528,515.627055 269.553912,513.611648 270.995076,512.039468 C272.421998,510.482826 274.277891,509.409809 276.178598,509.047707 Z" id="SF50" stroke="#FFFFFF" stroke-width="10" fill="#000000"></path>
        </g>
    </g>
</svg>