<?xml version="1.0" encoding="UTF-8"?>
<svg width="1024px" height="802px" viewBox="0 0 1024 802" version="1.1" xmlns="http://www.w3.org/2000/svg" xmlns:xlink="http://www.w3.org/1999/xlink">
    <title>Loading Image (light)</title>
    <defs>
        <radialGradient cx="49.934375%" cy="0%" fx="49.934375%" fy="0%" r="1288.33334%" gradientTransform="translate(0.499344,0.000000),scale(1.000000,0.077620),rotate(89.997081),translate(-0.499344,-0.000000)" id="radialGradient-1">
            <stop stop-color="#FFFFFF" offset="0%"></stop>
            <stop stop-color="#FFFFFF" offset="14.2296424%"></stop>
            <stop stop-color="#000000" offset="100%"></stop>
        </radialGradient>
    </defs>
    <g id="Loading-Images" stroke="none" stroke-width="1" fill="none" fill-rule="evenodd">
        <g id="Light" transform="translate(-236.000000, -1.000000)">
            <g id="Runway" transform="translate(508.500000, 0.000000)">
                <path d="M239.040429,-15.5700967 L480.244364,778.5 L-6.27785876,778.5 L239.040429,-15.5700967 Z" stroke="#000000" stroke-width="10" fill="#FFFFFF"></path>
                <path d="M240.7003,0.5 L238.5,52.5 L243.5,52.5 L241.2997,0.5 L240.7003,0.5 Z M237.405614,90.5 L235.5,142.5 L246.5,142.5 L244.594386,90.5 L237.405614,90.5 Z M233.441241,180.5 L231.5,232.5 L249.5,232.5 L247.558759,180.5 L233.441241,180.5 Z M230.457343,270.5 L228.5,322.5 L253.5,322.5 L251.542657,270.5 L230.457343,270.5 Z M226.466518,360.5 L224.5,412.5 L256.5,412.5 L254.533482,360.5 L226.466518,360.5 Z M223.472445,451.5 L221.5,503.5 L260.5,503.5 L258.527555,451.5 L223.472445,451.5 Z M219.476589,541.5 L217.5,593.5 L263.5,593.5 L261.523411,541.5 L219.476589,541.5 Z M216.479649,631.5 L214.5,683.5 L267.5,683.5 L265.520351,631.5 L216.479649,631.5 Z M212.482002,721.5 L210.5,773.5 L270.5,773.5 L268.517998,721.5 L212.482002,721.5 Z" id="Centerline" fill="url(#radialGradient-1)" fill-rule="nonzero"></path>
            </g>
            <path d="M749,469 C751.243989,469 753.771205,469.903157 755.930927,473.388163 C756.953747,475.038622 757.961322,477.491481 758.84347,480.799753 C760.331109,486.378763 761.600786,494.743424 762.606447,505.903198 C764.489368,526.797901 765.507535,557.767957 765.653702,598.807092 C789.168591,601.111828 809.855808,608.444597 818.377415,619.733324 C828.035775,628.07234 834.055678,653.755718 836.10604,683.049268 L836.10604,683.049268 L1029.2661,684.615259 C1032.19685,684.620411 1039.81713,684.671579 1047.75078,685.173076 L1047.75078,685.173076 L1048.68927,685.23442 L1049.84504,685.31584 C1055.65346,685.741842 1061.40049,686.442935 1065.37295,687.508745 C1067.55602,688.094465 1069.29787,688.829974 1070.49283,689.606872 C1073.18913,691.359875 1074,693.518968 1074,695.538462 C1074,697.224554 1073.43058,698.846897 1071.90743,700.291698 C1071.18022,700.981503 1070.12735,701.686335 1068.61369,702.257777 C1066.90647,702.902292 1064.30938,703.464804 1060.66338,703.860032 C1054.24853,704.555404 1044.10996,704.845801 1029.28833,704.846154 L1029.28833,704.846154 L836.986,706.924 L836.991859,707.525819 C837.066894,719.742125 836.61696,731.718822 835.735723,742.303865 L835.728,742.388 L839.483413,742.165574 C1253.54259,717.633302 1464.90464,705.251426 1473.56954,705.00379 L1473.77148,705 C1478.11275,705 1485.93941,705.458328 1491.58436,706.536469 C1494.02133,707.001911 1496.09927,707.608516 1497.52642,708.279849 C1498.68629,708.825457 1499.55637,709.464315 1500.16743,710.086943 C1501.50491,711.449737 1502,712.95212 1502,714.436464 C1502,716.789122 1500.99718,719.117737 1498.70521,721.151468 C1497.20032,722.486809 1495.0295,723.72814 1492.45902,724.754654 C1486.67129,727.065969 1478.69356,728.41831 1474.18641,728.69692 C1466.0247,729.549599 1247.63999,749.174887 819.097678,787.570394 C806.643402,794.4973 779.343289,797.971288 751.571974,797.999547 C721.801564,798.029841 691.794723,794.146199 679.426379,787.701885 C249.756148,749.210466 30.8840422,729.541532 22.8072109,728.696398 C18.2985799,728.416977 10.3258616,727.06483 4.54097784,724.754654 C1.97049851,723.72814 -0.200315442,722.486809 -1.70521251,721.151468 C-3.99717808,719.117737 -5,716.789122 -5,714.436464 C-5,712.95212 -4.50491257,711.449737 -3.16743413,710.086943 C-2.55637129,709.464315 -1.68629317,708.825457 -0.526418523,708.279849 C0.900728831,707.608516 2.97866943,707.001911 5.4156366,706.536469 C11.0605878,705.458328 18.8872521,705 23.2285203,705 C27.8030002,705 239.23429,717.382919 657.522299,742.16591 L657.522299,742.16591 L660.671,742.352 L660.56697,741.436699 C659.419844,731.07532 658.889869,719.547961 659.019335,707.798909 L659.031,706.913 L467.711665,704.846154 C453.150072,704.845807 443.108648,704.565504 436.67769,703.896258 L436.336623,703.860032 C432.690617,703.464804 430.093535,702.902292 428.386312,702.257777 C426.872649,701.686335 425.819778,700.981503 425.092566,700.291698 C423.569416,698.846897 423,697.224554 423,695.538462 C423,693.518968 423.810868,691.359875 426.507175,689.606872 C427.702126,688.829974 429.443977,688.094465 431.627052,687.508745 C435.599506,686.442935 441.346536,685.741842 447.154958,685.31584 L447.154958,685.31584 L448.310731,685.23442 L449.249218,685.173076 C449.405128,685.163221 449.560916,685.15354 449.716547,685.144029 L450.648149,685.088992 C458.081135,684.664705 464.981884,684.619957 467.292562,684.615784 L467.292562,684.615784 L467.395258,684.615136 C470.32229,684.594363 534.486235,684.074013 660.279254,683.049508 C662.839944,655.724586 669.419712,631.014525 679.700345,620.032934 C687.709434,608.518182 708.479568,601.021313 732.351016,598.753079 C732.49361,557.730945 733.511941,526.77799 735.394458,505.893502 C736.400111,494.736875 737.669725,486.374576 739.157231,480.797139 C740.039349,477.489619 741.046882,475.037332 742.069639,473.38725 C744.229208,469.903074 746.756149,469 749,469 Z" id="SR22" stroke="#FFFFFF" stroke-width="10" fill="#000000"></path>
        </g>
    </g>
</svg>