<?xml version="1.0" encoding="UTF-8"?>
<svg width="1024px" height="804px" viewBox="0 0 1024 804" version="1.1" xmlns="http://www.w3.org/2000/svg" xmlns:xlink="http://www.w3.org/1999/xlink">
    <title>Loading Image (dark)</title>
    <defs>
        <radialGradient cx="49.934375%" cy="0%" fx="49.934375%" fy="0%" r="985.224394%" gradientTransform="translate(0.499344,0.000000),scale(1.000000,0.077620),rotate(90.000000),translate(-0.499344,-0.000000)" id="radialGradient-1">
            <stop stop-color="#FFFFFF" offset="0%"></stop>
            <stop stop-color="#000000" offset="0%"></stop>
            <stop stop-color="#FFFFFF" offset="100%"></stop>
        </radialGradient>
    </defs>
    <g id="Loading-Images" stroke="none" stroke-width="1" fill="none" fill-rule="evenodd">
        <g id="Dark" transform="translate(-235.000000, -1.500000)">
            <g id="Runway" transform="translate(507.500000, 0.000000)">
                <polygon fill="#000000" points="473.5 773.5 239 1.5 0.5 773.5"></polygon>
                <path d="M240.7003,0.5 L238.5,52.5 L243.5,52.5 L241.2997,0.5 L240.7003,0.5 Z M237.405614,90.5 L235.5,142.5 L246.5,142.5 L244.594386,90.5 L237.405614,90.5 Z M233.441241,180.5 L231.5,232.5 L249.5,232.5 L247.558759,180.5 L233.441241,180.5 Z M230.457343,270.5 L228.5,322.5 L253.5,322.5 L251.542657,270.5 L230.457343,270.5 Z M226.466518,360.5 L224.5,412.5 L256.5,412.5 L254.533482,360.5 L226.466518,360.5 Z M223.472445,451.5 L221.5,503.5 L260.5,503.5 L258.527555,451.5 L223.472445,451.5 Z M219.476589,541.5 L217.5,593.5 L263.5,593.5 L261.523411,541.5 L219.476589,541.5 Z M216.479649,631.5 L214.5,683.5 L267.5,683.5 L265.520351,631.5 L216.479649,631.5 Z M212.482002,721.5 L210.5,773.5 L270.5,773.5 L268.517998,721.5 L212.482002,721.5 Z" id="Centerline" fill="url(#radialGradient-1)" fill-rule="nonzero"></path>
            </g>
            <path d="M749,471.5 C751.243989,471.5 753.771205,472.403157 755.930927,475.888163 C756.953747,477.538622 757.961322,479.991481 758.84347,483.299753 C760.331109,488.878763 761.600786,497.243424 762.606447,508.403198 C764.489368,529.297901 765.507535,560.267957 765.653702,601.307092 C789.168591,603.611828 809.855808,610.944597 818.377415,622.233324 C828.035775,630.57234 834.055678,656.255718 836.10604,685.549268 L836.10604,685.549268 L1029.2661,687.115259 C1032.19685,687.120411 1039.81713,687.171579 1047.75078,687.673076 L1047.75078,687.673076 L1048.68927,687.73442 L1049.84504,687.81584 C1055.65346,688.241842 1061.40049,688.942935 1065.37295,690.008745 C1067.55602,690.594465 1069.29787,691.329974 1070.49283,692.106872 C1073.18913,693.859875 1074,696.018968 1074,698.038462 C1074,699.724554 1073.43058,701.346897 1071.90743,702.791698 C1071.18022,703.481503 1070.12735,704.186335 1068.61369,704.757777 C1066.90647,705.402292 1064.30938,705.964804 1060.66338,706.360032 C1054.24853,707.055404 1044.10996,707.345801 1029.28833,707.346154 L1029.28833,707.346154 L836.986,709.424 L836.994916,710.586817 C837.053077,722.633487 836.601583,734.429736 835.730316,744.868688 L835.728,744.888 L839.483413,744.665574 C1253.54259,720.133302 1464.90464,707.751426 1473.56954,707.50379 L1473.77148,707.5 C1478.11275,707.5 1485.93941,707.958328 1491.58436,709.036469 C1494.02133,709.501911 1496.09927,710.108516 1497.52642,710.779849 C1498.68629,711.325457 1499.55637,711.964315 1500.16743,712.586943 C1501.50491,713.949737 1502,715.45212 1502,716.936464 C1502,719.289122 1500.99718,721.617737 1498.70521,723.651468 C1497.20032,724.986809 1495.0295,726.22814 1492.45902,727.254654 C1486.67129,729.565969 1478.69356,730.91831 1474.18641,731.19692 C1466.0247,732.049599 1247.63999,751.674887 819.097678,790.070394 C806.643402,796.9973 779.343289,800.471288 751.571974,800.499547 C721.801564,800.529841 691.794723,796.646199 679.426379,790.201885 C249.756148,751.710466 30.8840422,732.041532 22.8072109,731.196398 C18.2985799,730.916977 10.3258616,729.56483 4.54097784,727.254654 C1.97049851,726.22814 -0.200315442,724.986809 -1.70521251,723.651468 C-3.99717808,721.617737 -5,719.289122 -5,716.936464 C-5,715.45212 -4.50491257,713.949737 -3.16743413,712.586943 C-2.55637129,711.964315 -1.68629317,711.325457 -0.526418523,710.779849 C0.900728831,710.108516 2.97866943,709.501911 5.4156366,709.036469 C11.0605878,707.958328 18.8872521,707.5 23.2285203,707.5 C27.8030002,707.5 239.23429,719.882919 657.522299,744.66591 L657.522299,744.66591 L660.671,744.852 L660.56697,743.936699 C659.419844,733.57532 658.889869,722.047961 659.019335,710.298909 L659.031,709.413 L467.711665,707.346154 C453.150072,707.345807 443.108648,707.065504 436.67769,706.396258 L436.336623,706.360032 C432.690617,705.964804 430.093535,705.402292 428.386312,704.757777 C426.872649,704.186335 425.819778,703.481503 425.092566,702.791698 C423.569416,701.346897 423,699.724554 423,698.038462 C423,696.018968 423.810868,693.859875 426.507175,692.106872 C427.702126,691.329974 429.443977,690.594465 431.627052,690.008745 C435.599506,688.942935 441.346536,688.241842 447.154958,687.81584 L447.154958,687.81584 L448.310731,687.73442 L449.249218,687.673076 C449.405128,687.663221 449.560916,687.65354 449.716547,687.644029 L450.648149,687.588992 C458.081135,687.164705 464.981884,687.119957 467.292562,687.115784 L467.292562,687.115784 L467.395258,687.115136 C470.32229,687.094363 534.486235,686.574013 660.279254,685.549508 C662.839944,658.224586 669.419712,633.514525 679.700345,622.532934 C687.709434,611.018182 708.479568,603.521313 732.351016,601.253079 C732.49361,560.230945 733.511941,529.27799 735.394458,508.393502 C736.400111,497.236875 737.669725,488.874576 739.157231,483.297139 C740.039349,479.989619 741.046882,477.537332 742.069639,475.88725 C744.229208,472.403074 746.756149,471.5 749,471.5 Z" id="SR22" stroke="#FFFFFF" stroke-width="10" fill="#000000"></path>
        </g>
    </g>
</svg>